<svg width="26" height="26" viewBox="0 0 26 26" fill="none" xmlns="http://www.w3.org/2000/svg">
<path d="M17.2001 9.39996L17.406 9.60585C19.006 11.2058 19.806 12.0059 19.806 13C19.806 13.994 19.006 14.7941 17.406 16.394L17.2001 16.6" stroke="black" stroke-width="2" stroke-linecap="round"/>
<path d="M14.5531 7.20447L13.0002 13L11.4473 18.7956" stroke="black" stroke-width="2" stroke-linecap="round"/>
<path d="M8.79985 9.39996L8.59397 9.60585C6.99397 11.2058 6.19397 12.0059 6.19397 13C6.19397 13.994 6.99397 14.7941 8.59397 16.394L8.79985 16.6" stroke="black" stroke-width="2" stroke-linecap="round"/>
<path d="M25 13C25 18.6568 25 21.4853 23.2426 23.2426C21.4853 25 18.6568 25 13 25C7.34314 25 4.51472 25 2.75736 23.2426C1 21.4853 1 18.6568 1 13C1 7.34314 1 4.51472 2.75736 2.75736C4.51472 1 7.34314 1 13 1C18.6568 1 21.4853 1 23.2426 2.75736C24.4112 3.92585 24.8027 5.56786 24.9339 8.2" stroke="black" stroke-width="2" stroke-linecap="round"/>
</svg>
